# xmcd
#
# Track frame offsets:
#	150
#	15783
#	36181
#	55617
#	78691
#	96487
#	111285
#	135070
#	156949
#	170466
#	192231
#	213855
#	235798
#	258997
#
# Disc length: 3737
#
# Revision: 1
# Processed by: cddbd v1.5.1PL0 Copyright (c) Steve Scherf et al.
# Submitted via: CDex 1.40Release
# Normalized: r0:TRMNUM
#
DISCID=ab0e970e
DTITLE=Eric Clapton - Reptile
DYEAR=1900
DGENRE=Blues
TTITLE0=Eric Clapton - Reptile - [Album - Reptile]
TTITLE1=Eric Clapton - Got You On My Mind - [Album - Reptile]
TTITLE2=Eric Clapton - Travelin' Light - [Album - Reptile]
TTITLE3=Eric Clapton - Believe In Life - [Album - Reptile]
TTITLE4=Eric Clapton - Come Back Baby - [Album - Reptile]
TTITLE5=Eric Clapton - Broken Down - [Album - Reptile]
TTITLE6=Eric Clapton - Find Myself - [Album - Reptile]
TTITLE7=Eric Clapton - I Ain't Gonna Stand For It - [Album - Reptile]
TTITLE8=Eric Clapton - I Want A little Girl - [Album - Reptile]
TTITLE9=Eric Clapton - Second Nature - [Album - Reptile]
TTITLE10=Eric Clapton - Don't Let Me Be Lonely Tonight - [Album - Reptile]
TTITLE11=Eric Clapton - Modern Girl - [Album - Reptile]
TTITLE12=Eric Clapton - Superman Inside - [Album Reptile]
TTITLE13=Eric Clapton - Son and Sylvia - [Album Reptile]
EXTD=ID3G: 0
EXTT0=
EXTT1=
EXTT2=
EXTT3=
EXTT4=
EXTT5=
EXTT6=
EXTT7=
EXTT8=
EXTT9=
EXTT10=
EXTT11=
EXTT12=
EXTT13=
PLAYORDER=
